<svg width="15" height="16" viewBox="0 0 15 16" fill="none" xmlns="http://www.w3.org/2000/svg">
<path d="M2.03517 6.3862C2.03517 4.1571 3.84222 2.35005 6.07132 2.35005C8.3004 2.35005 10.1075 4.1571 10.1075 6.3862C10.1075 8.61528 8.3004 10.4223 6.07132 10.4223C3.84222 10.4223 2.03517 8.61528 2.03517 6.3862ZM6.07132 0.735596C2.95058 0.735596 0.420715 3.26546 0.420715 6.3862C0.420715 9.50694 2.95058 12.0368 6.07132 12.0368C7.34052 12.0368 8.51205 11.6183 9.45538 10.9118L13.5728 15.0293C13.888 15.3445 14.3992 15.3445 14.7144 15.0293C15.0296 14.7141 15.0296 14.2029 14.7144 13.8877L10.597 9.77026C11.3035 8.82694 11.7219 7.6554 11.7219 6.3862C11.7219 3.26546 9.19206 0.735596 6.07132 0.735596Z" fill="#EDEDED"/>
</svg>
